<svg width="228" height="240" viewBox="0 0 228 240" fill="none" xmlns="http://www.w3.org/2000/svg">
<circle cx="121.5" cy="119.5" r="106.5" fill="#BDCAF2"/>
<g clip-path="url(#clip0_207_2)">
<path d="M116.232 49.372C119.884 49.16 123.544 49.136 127.184 49.304C140.456 49.908 153.684 53.144 165.392 59.508C165.636 59.64 165.876 59.776 166.12 59.908" stroke="black" stroke-width="2" stroke-linecap="round" stroke-linejoin="round"/>
<path d="M87.8521 55.244C89.4121 54.672 90.944 54.164 92.392 53.704C97.736 52.008 103.252 50.804 108.832 50.068" stroke="black" stroke-width="2" stroke-linecap="round" stroke-linejoin="round"/>
<path d="M179.804 86.052C178.744 95.628 177.684 105.204 176.624 114.776C175.616 123.876 174.668 132.984 173.572 142.072C173.332 144.056 171.648 145.284 170.368 146.716L166.112 151.48C164.208 153.612 162.304 155.744 160.4 157.876C157.976 152.7 152.34 148.76 147.712 145.748C144.128 143.42 140.32 141.444 136.36 139.848C132.788 138.404 127.84 136.104 123.912 136.256C122.532 136.308 121.244 136.968 120.096 137.736C116.34 140.248 112.436 142.46 108.52 144.712C103.012 147.88 97.5079 151.052 91.9999 154.22C89.8799 155.44 87.7639 156.66 85.6439 157.876C81.6319 154.616 77.6239 151.352 73.6119 148.096C73.4959 148.004 73.3759 147.904 73.3079 147.772C73.2359 147.632 73.2279 147.468 73.2239 147.308C73.0759 143.252 72.8839 139.196 72.7119 135.14C72.3159 125.904 71.9199 116.668 71.5239 107.432C71.1279 98.196 70.7439 89.164 70.3519 80.032C70.1959 76.412 70.0479 72.788 69.8759 69.168C69.8599 68.84 69.8439 68.508 69.9239 68.192C69.9919 67.92 70.1239 67.672 70.2639 67.428C71.8119 64.74 74.1199 62.524 76.7999 60.672" stroke="black" stroke-width="2" stroke-linecap="round" stroke-linejoin="round"/>
<path d="M85.644 157.884C109.848 194.924 160.912 173.272 160.4 157.884" stroke="black" stroke-width="2" stroke-miterlimit="10"/>
<path d="M77.312 150.98L77.984 183.28" stroke="black" stroke-width="2" stroke-linecap="round" stroke-linejoin="round"/>
<path d="M171.992 144.904V203.908C156.316 213.916 107.5 214.12 81.4198 204.384C75.6118 201.86 72.0038 182.764 77.9398 181.252" stroke="black" stroke-width="2" stroke-linecap="round" stroke-linejoin="round"/>
<path d="M142.972 124.384C127.356 117.844 114.464 117.48 104.3 123.296C99.2601 134.188 147.464 129.804 142.972 124.384Z" stroke="black" stroke-width="2" stroke-miterlimit="10"/>
<path d="M104.296 123.296C98.9838 122.004 113.488 108.316 120.228 113.084C122.312 115.528 124.448 115.776 126.628 114.104C131.12 109.476 146.508 120.912 142.968 124.384" stroke="black" stroke-width="2" stroke-miterlimit="10"/>
<path d="M72.7079 135.152C54.5959 147.724 48.4199 92.712 71.0719 96.968" stroke="black" stroke-width="2" stroke-miterlimit="10"/>
<path d="M181.968 94.568C181.088 93.932 180.104 93.464 179.012 93.2" stroke="black" stroke-width="2" stroke-miterlimit="10"/>
<path d="M174.76 131.62C182.504 141.756 188.832 125.064 188.132 110.548" stroke="black" stroke-width="2" stroke-miterlimit="10"/>
<path d="M114.897 102.18C117.351 101.32 118.982 99.6018 118.541 98.3426C118.099 97.0835 115.752 96.7601 113.298 97.6203C110.845 98.4805 109.213 100.199 109.655 101.458C110.096 102.717 112.443 103.04 114.897 102.18Z" stroke="black" stroke-width="2" stroke-miterlimit="10"/>
<path d="M135.536 101.712C136.051 100.481 134.525 98.6688 132.127 97.6642C129.729 96.6595 127.367 96.8427 126.851 98.0734C126.335 99.3041 127.862 101.116 130.26 102.121C132.658 103.126 135.02 102.942 135.536 101.712Z" stroke="black" stroke-width="2" stroke-miterlimit="10"/>
<path d="M63.7202 99.888L68.7562 108.18L64.5882 120.572L69.8482 123.704L63.7202 130.512" stroke="black" stroke-width="2" stroke-miterlimit="10"/>
<path d="M108.316 78.904C105.852 84.316 87.9922 84.012 81.7642 78.904C84.4162 71.244 102.7 69.1 108.316 78.904Z" stroke="black" stroke-width="2" stroke-miterlimit="10"/>
<path d="M81.7642 78.904C88.5882 75.236 96.7242 73.94 108.316 78.904" stroke="black" stroke-width="2" stroke-miterlimit="10"/>
<path d="M91.872 82.528C91.16 81.452 90.748 80.164 90.748 78.776C90.748 77.712 90.9921 76.7 91.4281 75.804" stroke="black" stroke-width="2" stroke-miterlimit="10"/>
<path d="M104.232 77.364C104.328 77.82 104.38 78.292 104.38 78.776C104.38 79.96 104.08 81.068 103.548 82.04" stroke="black" stroke-width="2" stroke-miterlimit="10"/>
<path d="M137.252 78.272C139.716 83.684 157.576 83.38 163.804 78.272C161.152 70.612 142.868 68.468 137.252 78.272Z" stroke="black" stroke-width="2" stroke-miterlimit="10"/>
<path d="M163.804 78.272C156.98 74.604 148.844 73.308 137.252 78.272" stroke="black" stroke-width="2" stroke-miterlimit="10"/>
<path d="M153.692 81.892C154.404 80.816 154.816 79.528 154.816 78.14C154.816 77.076 154.572 76.064 154.136 75.168" stroke="black" stroke-width="2" stroke-miterlimit="10"/>
<path d="M141.336 76.728C141.24 77.184 141.188 77.656 141.188 78.14C141.188 79.324 141.488 80.432 142.02 81.404" stroke="black" stroke-width="2" stroke-miterlimit="10"/>
<path d="M131.844 79.304L138.34 88.608L161.32 90.548L170.204 76.956L174.16 77.196" stroke="black" stroke-width="2" stroke-miterlimit="10"/>
<path d="M172.132 72.84L170.204 72.328L164.792 66.648L142.02 63.924L129.316 73.896C137.76 91.496 147.428 115.192 125.692 101.624" stroke="black" stroke-width="2" stroke-miterlimit="10"/>
<path d="M112.904 79.428L106.408 88.732L83.4278 90.672L74.5438 77.084L70.2358 77.344" stroke="black" stroke-width="2" stroke-miterlimit="10"/>
<path d="M82.5562 66.464L102.728 64.052C102.728 64.052 114.852 73.572 115.412 74.012C106.98 91.6 97.3962 115.168 119.088 101.632" stroke="black" stroke-width="2" stroke-miterlimit="10"/>
<path d="M70.0762 73.64L74.5442 72.456L76.9402 69.94" stroke="black" stroke-width="2" stroke-miterlimit="10"/>
<path d="M110.588 70.22C117.808 66.252 125.24 67.184 132.8 71.164" stroke="black" stroke-width="2" stroke-miterlimit="10"/>
<path d="M129.836 73.488C124.284 71.264 119.064 71.112 114.168 73.032" stroke="black" stroke-width="2" stroke-miterlimit="10"/>
<path d="M171.992 155.536C175.532 162.052 178.8 157.448 182.36 139.468C186.748 154.004 192.74 149.1 198.256 119.192" stroke="black" stroke-width="2" stroke-linecap="round" stroke-linejoin="round"/>
<path d="M77.46 151.232C75.988 159.708 74.448 161.676 71.52 159.716" stroke="black" stroke-width="2" stroke-linecap="round" stroke-linejoin="round"/>
<path d="M68.8842 136.884C77.3082 180.324 62.0442 159.588 65.4362 136.68" stroke="black" stroke-width="2" stroke-linecap="round" stroke-linejoin="round"/>
<path d="M59.0838 129.632C54.0838 152.084 47.3958 142.816 45.5078 119.48" stroke="black" stroke-width="2" stroke-linecap="round" stroke-linejoin="round"/>
<path d="M64.232 136.132C60.54 151.976 55.852 150.912 59.128 129.724" stroke="black" stroke-width="2" stroke-linecap="round" stroke-linejoin="round"/>
<path d="M110.152 55.572L108.316 53.712L86.8682 59.84" stroke="black" stroke-width="2" stroke-linecap="round" stroke-linejoin="round"/>
<path d="M86.8682 62.02L114.104 59.568L112.756 58.208" stroke="black" stroke-width="2" stroke-linecap="round" stroke-linejoin="round"/>
<path d="M167.344 64.88L138.204 61.34L136.16 53.712L166.8 62.836" stroke="black" stroke-width="2" stroke-linecap="round" stroke-linejoin="round"/>
<path d="M177.688 24.756C177.292 24.516 176.684 24.136 175.944 23.664" stroke="black" stroke-width="2" stroke-linecap="round" stroke-linejoin="round"/>
<path d="M201.216 59.568C201.108 59.46 200.92 59.524 200.904 59.672C199.94 68.856 201.656 78.028 209.188 87.172C209.872 88 210.256 89.044 210.264 90.12C210.396 108.12 206.368 118.768 203.192 109.644L203.056 109.664C201.108 97.504 194.992 80.54 187.76 80.428C187.204 75.188 186.472 69.66 185.564 64.176H185.568C205 88.508 190.804 34.904 177.688 24.756C177.104 24.3 176.52 23.936 175.944 23.664C172.404 21.42 165.764 17.1 163.916 16.116C160 14.028 156.184 12.232 152.456 10.708C148.14 8.936 143.948 7.532 139.868 6.464C137.272 5.78 134.724 5.236 132.216 4.82C127.508 4.032 122.948 3.696 118.524 3.756C116.016 3.792 113.548 3.952 111.124 4.236C107.424 4.668 103.816 5.376 100.288 6.328C97.7679 7.008 95.2919 7.812 92.8479 8.732C89.5879 9.96 86.3959 11.392 83.2599 12.996C67.4999 80.628 54.1119 100.94 58.3519 74.408C59.5119 67.152 61.9879 56.392 66.0959 42.14L65.7319 42.036C39.9279 132.172 5.62386 142.964 68.4679 15.624C68.4799 15.6 68.4959 15.576 68.5199 15.56C78.7399 7.8 94.7359 2.764 111.756 1.052C113.98 0.827996 116.224 0.659996 118.472 0.551996C140.648 -0.520004 163.512 4.056 176.928 15.572C176.94 15.58 176.952 15.588 176.968 15.596C201.548 27.036 211.868 45.608 188.188 32.744C221.364 50.864 228.272 86.84 201.216 59.568Z" stroke="black" stroke-width="2" stroke-linecap="round" stroke-linejoin="round"/>
<path d="M92.8478 8.732C58.2598 95.496 86.7078 88.296 100.288 6.32401" stroke="black" stroke-width="2" stroke-linecap="round" stroke-linejoin="round"/>
<path d="M58.352 74.408C34.024 124.892 32.388 150.056 70.24 77.508" stroke="black" stroke-width="2" stroke-linecap="round" stroke-linejoin="round"/>
<path d="M111.124 4.23601C107.36 24.044 107.344 40.708 108.836 50.096C109.2 52.368 109.648 54.212 110.156 55.572C110.928 57.648 111.832 58.596 112.756 58.208C113.964 57.7 115.208 54.912 116.232 49.384C117.784 41.008 118.84 26.336 118.524 3.75601" stroke="black" stroke-width="2" stroke-linecap="round" stroke-linejoin="round"/>
<path d="M132.216 4.81601C147.544 62.032 166.28 67.576 139.868 6.46001" stroke="black" stroke-width="2" stroke-linecap="round" stroke-linejoin="round"/>
<path d="M180.216 85.92C180.12 85.912 180.02 85.88 179.912 85.832C178.656 85.284 176.632 82.228 174.16 77.196C174.152 77.176 174.14 77.156 174.132 77.136" stroke="black" stroke-width="2" stroke-linecap="round" stroke-linejoin="round"/>
<path d="M172.132 72.84C172.824 74.396 173.492 75.832 174.128 77.136" stroke="black" stroke-width="2" stroke-linecap="round" stroke-linejoin="round"/>
<path d="M172.136 72.844C170.476 69.108 168.68 64.668 166.824 59.648C161.972 46.528 156.72 29.46 152.456 10.708" stroke="black" stroke-width="2" stroke-linecap="round" stroke-linejoin="round"/>
<path d="M188.132 110.548C187.052 112.692 185.012 108.624 181.968 94.568C181.416 92.024 180.832 89.148 180.216 85.92C183.216 86.232 180.484 68.244 165.712 21.728C165.132 19.9 164.532 18.032 163.916 16.116C165.764 17.1 172.404 21.42 175.944 23.664C174.48 22.984 173.052 22.924 171.704 23.664C178 29.492 182.668 46.612 185.564 64.176C186.472 69.66 187.204 75.188 187.76 80.428C188.58 88.172 189.016 95.284 189.052 100.708C189.088 105.696 188.784 109.252 188.132 110.548Z" stroke="black" stroke-width="2" stroke-miterlimit="10"/>
<path d="M203.056 109.664C204.58 119.188 203.548 125.768 198.5 119.008C198.484 118.992 198.472 118.972 198.456 118.952C196.176 115.88 193.088 110.116 189.052 100.712" stroke="black" stroke-width="2" stroke-miterlimit="10"/>
<path d="M181.3 115.4L177.384 124.604L184.172 125.876L181.3 115.4Z" stroke="black" stroke-width="2" stroke-linecap="round" stroke-linejoin="round"/>
<path d="M75.044 185.868C67.66 183.08 24.772 212.648 24.772 227.196L0.395996 236.184" stroke="black" stroke-width="2" stroke-linecap="round" stroke-linejoin="round"/>
<path d="M171.992 185.168C193.16 180.888 206.856 185.516 207.364 193.488C207.4 194.048 207.504 194.6 207.66 195.14C209.968 202.984 214.74 206.944 221.092 208.428C224.172 209.148 226.608 211.56 227.124 214.684C228.36 222.128 223.652 229.228 216.504 228.248C206.656 226.892 197.26 234.092 197.26 239.048" stroke="black" stroke-width="2" stroke-linecap="round" stroke-linejoin="round"/>
</g>
<defs>
<clipPath id="clip0_207_2">
<rect width="227.724" height="239.44" fill="white"/>
</clipPath>
</defs>
</svg>
