<svg width="54" height="96" viewBox="0 0 54 96" fill="none" xmlns="http://www.w3.org/2000/svg">
<g clip-path="url(#clip0_178_17)">
<path d="M45.8498 27.1372C49.9045 27.1372 53.1956 30.4286 53.1956 34.4839V79.1277C53.1956 88.4401 45.6365 95.9982 36.3271 95.9982C32.2724 95.9982 28.9813 92.7067 28.9813 88.6515V44.0077C28.9813 34.6953 36.5404 27.1372 45.8498 27.1372Z" fill="#EBEBF2"/>
<path d="M16.8704 68.8628C7.55913 68.8628 3.24249e-05 61.3028 3.24249e-05 51.9923L3.24249e-05 7.3485C3.24249e-05 3.29326 3.29107 0.00183868 7.34582 0.00183868C16.6571 -6.86646e-05 24.2162 7.55993 24.2162 16.8704L24.2162 61.5161C24.2162 65.5714 20.9252 68.8628 16.8704 68.8628Z" fill="#EBEBF2"/>
</g>
<defs>
<clipPath id="clip0_178_17">
<rect width="53.1975" height="96" fill="white"/>
</clipPath>
</defs>
</svg>
