<svg width="200" height="200" viewBox="0 0 200 200" fill="none" xmlns="http://www.w3.org/2000/svg">
<path d="M65.0253 47.7583C69.9337 47.7583 74.3503 48.1833 78.4003 49.05C82.4253 49.9083 85.8587 51.325 88.7587 53.2833C91.617 55.2417 93.8503 57.8417 95.4587 61.1083C97.017 64.3333 97.792 68.3667 97.792 73.1333C97.792 78.3 96.6253 82.6167 94.2837 86.0583C91.9253 89.5083 88.4503 92.3333 83.817 94.5167C90.1253 96.3417 94.8003 99.5333 97.9003 104.067C101.017 108.642 102.542 114.117 102.542 120.533C102.542 125.742 101.55 130.217 99.5587 133.975C97.6394 137.677 94.855 140.862 91.442 143.258C87.9067 145.72 83.9579 147.527 79.7837 148.592C75.4071 149.741 70.9001 150.318 66.3753 150.308H16.667V47.7583H65.0253ZM62.1003 89.1917C66.1003 89.1917 69.417 88.2417 72.0337 86.3167C74.6337 84.4167 75.892 81.2833 75.892 76.9917C75.892 74.6083 75.467 72.6417 74.6337 71.1C73.8218 69.6168 72.6202 68.3836 71.1587 67.5333C69.6289 66.6261 67.9406 66.018 66.1837 65.7417C64.2686 65.3845 62.3233 65.2143 60.3753 65.2333H39.2503V89.1917H62.1003ZM63.3587 132.85C65.5837 132.85 67.7003 132.658 69.692 132.208C71.7003 131.775 73.4837 131.075 75.0003 130.033C76.517 129.033 77.767 127.675 78.667 125.942C79.5753 124.225 80.017 121.983 80.017 119.292C80.017 114.008 78.5253 110.25 75.5753 107.975C72.617 105.725 68.6503 104.608 63.792 104.608H39.2503V132.858L63.3587 132.85ZM134.734 132.508C137.792 135.492 142.2 136.992 147.934 136.992C152.042 136.992 155.592 135.95 158.584 133.883C161.534 131.808 163.334 129.592 164.025 127.3H181.984C179.1 136.233 174.725 142.617 168.742 146.458C162.834 150.317 155.642 152.233 147.242 152.233C141.392 152.233 136.125 151.292 131.409 149.425C126.881 147.662 122.79 144.938 119.417 141.442C116.099 137.864 113.535 133.655 111.875 129.067C110.051 123.993 109.148 118.633 109.209 113.242C109.209 107.692 110.134 102.5 111.95 97.7083C113.675 93.0765 116.323 88.8436 119.734 85.2667C123.109 81.7667 127.109 79.0083 131.767 76.9833C136.666 74.9231 141.937 73.8962 147.25 73.9667C153.534 73.9667 159.025 75.1833 163.742 77.6333C168.316 79.972 172.282 83.3446 175.325 87.4833C178.35 91.5917 180.509 96.3 181.85 101.575C183.192 106.842 183.659 112.342 183.275 118.1H129.684C129.692 123.967 131.667 129.525 134.734 132.508ZM158.167 93.5C155.742 90.8167 151.642 89.3667 146.625 89.3667C143.367 89.3667 140.675 89.9083 138.509 91.025C136.528 92.0256 134.77 93.4175 133.342 95.1167C132.088 96.6593 131.158 98.4393 130.609 100.35C130.128 101.943 129.818 103.583 129.684 105.242H162.867C162.384 100.042 160.6 96.2 158.167 93.5ZM125.517 54.6417H167.092V64.7667H125.517V54.6417Z" fill="#EBEBF2"/>
</svg>
