<svg width="152" height="152" viewBox="0 0 152 152" fill="none" xmlns="http://www.w3.org/2000/svg">
<path d="M18.5253 36.975C28.5953 36.975 36.7587 28.8117 36.7587 18.7417C36.7587 8.67167 28.5953 0.508331 18.5253 0.508331C8.45533 0.508331 0.291992 8.67167 0.291992 18.7417C0.291992 28.8117 8.45533 36.975 18.5253 36.975Z" fill="#373A40"/>
<path d="M53.9753 50.7917V151.95H85.3837V101.925C85.3837 88.725 87.867 75.9417 104.234 75.9417C120.375 75.9417 120.575 91.0333 120.575 102.758V151.958H152V96.4834C152 69.2334 146.134 48.2917 114.284 48.2917C98.992 48.2917 88.742 56.6834 84.5503 64.625H84.1253V50.7917H53.9753ZM2.79199 50.7917H34.2503V151.95H2.79199V50.7917Z" fill="#373A40"/>
</svg>
